<svg width="38" height="35" viewBox="0 0 38 35" fill="none" xmlns="http://www.w3.org/2000/svg">
<path d="M0.0391917 30.147C0.0463167 30.175 0.0451292 30.2061 0.0558167 30.2329C0.0682855 30.2633 0.0926292 30.2865 0.109848 30.3145C0.214942 30.4845 0.391879 30.6046 0.60266 30.6046H0.604442H3.01507C3.30482 32.6685 5.03441 34.2608 7.125 34.2608C9.21441 34.2608 10.944 32.6685 11.2338 30.6046H26.7651C27.0548 32.6685 28.7844 34.2608 30.8738 34.2608C32.9644 34.2608 34.694 32.6685 34.9838 30.6046H36.2152H36.217H36.2176C36.2199 30.6046 36.2223 30.6034 36.2247 30.6034C36.2995 30.6022 36.3737 30.5875 36.4438 30.5577C36.5174 30.5266 36.5827 30.4821 36.6379 30.4254L37.8243 29.2128C37.9359 29.0982 37.9988 28.9434 37.9988 28.7813L38 23.8948C38 23.8021 37.9768 23.7162 37.9406 23.6376C37.9377 23.6327 37.9389 23.6266 37.9365 23.6218L37.3427 22.4067C37.262 22.2415 37.1123 22.1227 36.9366 22.0843L28.7512 20.2842L21.7313 14.8797C21.6285 14.8005 21.5038 14.7578 21.375 14.7578H17.8137V14.1484H19.0012C20.6382 14.1484 21.9699 12.7816 21.9699 11.1016V3.78662C21.9699 2.10657 20.6382 0.739746 19.0012 0.739746H11.8738C10.2368 0.739746 8.90507 2.10657 8.90507 3.78662V11.1016C8.90507 12.7816 10.2368 14.1484 11.8738 14.1484H13.075V14.7578H8.90744H8.90685C8.90625 14.7578 8.90566 14.7578 8.90566 14.7578H4.75C4.55169 14.7578 4.36644 14.8596 4.256 15.029L0.693504 20.514C0.680442 20.5341 0.67391 20.5578 0.663223 20.5798C0.652535 20.5999 0.643035 20.6188 0.635317 20.6407C0.610379 20.7083 0.593754 20.7784 0.593754 20.8516V25.729C0.435817 25.729 0.28441 25.793 0.173379 25.9081C0.0617542 26.0221 -0.000589548 26.1781 4.2025e-06 26.3402L0.0095042 29.9964C0.0095042 30.0501 0.026723 30.0976 0.0391917 30.147ZM2.375 21.4609V22.6809H1.78125V21.4609H2.375ZM7.125 33.0415C5.48744 33.0415 4.15507 31.6747 4.15507 29.9946C4.15507 28.314 5.48744 26.9465 7.125 26.9465C8.76197 26.9465 10.0938 28.314 10.0938 29.9946C10.0938 31.6747 8.76197 33.0415 7.125 33.0415ZM30.8738 33.0415C29.2368 33.0415 27.9051 31.6747 27.9051 29.9946C27.9051 28.314 29.2368 26.9465 30.8738 26.9465C32.5114 26.9465 33.8438 28.314 33.8438 29.9946C33.8438 31.6747 32.5114 33.0415 30.8738 33.0415ZM36.4444 23.2854H35.0301V22.9106L36.4093 23.2141L36.4444 23.2854ZM26.7193 20.2422H16.0324V15.9766H21.1773L26.7193 20.2422ZM7.71994 20.2422V17.1947C7.71994 16.5232 8.25194 15.9766 8.90625 15.9759H14.8449V20.2416H7.71994V20.2422ZM10.0926 11.1016V3.78662C10.0926 2.77871 10.8918 1.9585 11.8738 1.9585H19.0012C19.9833 1.9585 20.7824 2.77871 20.7824 3.78662V11.1016C20.7824 12.1095 19.9833 12.9297 19.0012 12.9297H11.8738C10.8918 12.9297 10.0926 12.1095 10.0926 11.1016ZM14.2625 14.1484H16.6256V14.7578H15.4512C15.4464 14.7578 15.4423 14.7554 15.4381 14.7554C15.4339 14.7554 15.4298 14.7578 15.425 14.7578H14.2625V14.1484ZM5.06766 15.9759H6.86257C6.65772 16.3361 6.53185 16.7486 6.53185 17.1947V20.8516C6.53185 21.1885 6.79725 21.4609 7.1256 21.4609H28.4371L33.8426 22.6492V23.8948C33.8426 24.2318 34.108 24.5041 34.4363 24.5041H36.8125L36.8113 28.5278L35.9723 29.3852H34.9838C34.6946 27.3207 32.9644 25.7278 30.8738 25.7278C28.7838 25.7278 27.0542 27.3207 26.7651 29.3852H11.2338C10.9446 27.3207 9.215 25.7278 7.125 25.7278C5.03441 25.7278 3.30422 27.3207 3.01507 29.3852H1.19522L1.18929 26.9477H1.78007C2.10841 26.9477 2.37382 26.6753 2.37382 26.3384C2.37382 26.002 2.109 25.7302 1.78125 25.729V23.8996H2.96875C3.2971 23.8996 3.5625 23.6273 3.5625 23.2903V20.8516C3.5625 20.5146 3.2971 20.2422 2.96875 20.2422H2.29663L5.06766 15.9759Z" fill="#ED411B"/>
<path d="M16.0312 23.2903H16.625C16.9533 23.2903 17.2188 23.0179 17.2188 22.6809C17.2188 22.3439 16.9533 22.0715 16.625 22.0715H16.0312C15.7029 22.0715 15.4375 22.3439 15.4375 22.6809C15.4375 23.0179 15.7029 23.2903 16.0312 23.2903Z" fill="#ED411B"/>
<path d="M7.71045 23.2903H8.3042C8.63254 23.2903 8.89795 23.0179 8.89795 22.6809C8.89795 22.3439 8.63254 22.0715 8.3042 22.0715H7.71045C7.38211 22.0715 7.1167 22.3439 7.1167 22.6809C7.1167 23.0179 7.3827 23.2903 7.71045 23.2903Z" fill="#ED411B"/>
<path d="M7.125 28.1665C6.14294 28.1665 5.34375 28.9867 5.34375 29.9946C5.34375 31.0025 6.14294 31.8228 7.125 31.8228C8.10706 31.8228 8.90625 31.0025 8.90625 29.9946C8.90625 28.9867 8.10706 28.1665 7.125 28.1665ZM7.125 30.604C6.79725 30.604 6.53125 30.331 6.53125 29.9946C6.53125 29.6583 6.79725 29.3853 7.125 29.3853C7.45275 29.3853 7.71875 29.6583 7.71875 29.9946C7.71875 30.331 7.45275 30.604 7.125 30.604Z" fill="#ED411B"/>
<path d="M30.8735 28.1665C29.8915 28.1665 29.0923 28.9867 29.0923 29.9946C29.0923 31.0025 29.8915 31.8228 30.8735 31.8228C31.8556 31.8228 32.6548 31.0025 32.6548 29.9946C32.6548 28.9867 31.8556 28.1665 30.8735 28.1665ZM30.8735 30.604C30.5458 30.604 30.2798 30.331 30.2798 29.9946C30.2798 29.6583 30.5458 29.3853 30.8735 29.3853C31.2013 29.3853 31.4673 29.6583 31.4673 29.9946C31.4673 30.331 31.2013 30.604 30.8735 30.604Z" fill="#ED411B"/>
<path d="M18.3759 10.4599C19.1608 9.6543 19.5937 8.58301 19.5937 7.44348C19.5937 6.30395 19.1608 5.23267 18.3759 4.42769C17.5915 3.62209 16.5477 3.17847 15.4374 3.17847C14.3271 3.17847 13.2833 3.6227 12.4989 4.42769C10.8786 6.09067 10.8786 8.7963 12.4989 10.4593C13.2833 11.2649 14.3271 11.7085 15.4374 11.7085C16.5477 11.7085 17.5915 11.2649 18.3759 10.4599ZM13.8004 9.98519L17.9139 5.76344C18.0297 5.94259 18.1229 6.13515 18.1984 6.33442L14.3562 10.2771C14.1626 10.1991 13.9756 10.104 13.8004 9.98519ZM12.6771 8.55316L16.5186 4.60989C16.7128 4.68789 16.8998 4.78295 17.075 4.90178L12.9615 9.12292C12.8445 8.94255 12.7519 8.7512 12.6771 8.55316ZM15.8703 10.4465L18.3634 7.88772C18.272 8.53183 17.9929 9.12901 17.5357 9.59762C17.0785 10.0662 16.4979 10.3526 15.8703 10.4465ZM15.0046 4.44048L12.5114 6.99925C12.6005 6.37342 12.87 5.76953 13.3385 5.28934C13.7951 4.82012 14.377 4.53433 15.0046 4.44048Z" fill="#ED411B"/>
</svg>
