<svg width="29" height="29" viewBox="0 0 29 29" fill="none" xmlns="http://www.w3.org/2000/svg">
<path d="M20.8423 29.0002C19.9062 29.0002 18.978 28.8347 18.0704 28.505C14.0718 27.0524 10.3603 24.6866 7.3369 21.6633C4.31352 18.64 1.94772 14.9284 0.495224 10.9298C0.0284646 9.64478 -0.109281 8.3183 0.0859528 6.98707C0.268839 5.74011 0.751854 4.52957 1.48283 3.48628C2.21704 2.43841 3.19587 1.56685 4.31347 0.96586C5.50526 0.324993 6.80608 0 8.17991 0C8.60719 0 8.97648 0.298543 9.06602 0.71631L10.4884 7.35431C10.5528 7.65489 10.4605 7.96765 10.2431 8.18503L7.81261 10.6155C10.1055 15.1741 13.8259 18.8946 18.3846 21.1875L20.815 18.7569C21.0324 18.5396 21.3452 18.4473 21.6458 18.5116L28.2838 19.9341C28.7016 20.0236 29.0001 20.3929 29.0001 20.8202C29.0001 22.194 28.6751 23.4949 28.0342 24.6867C27.4332 25.8043 26.5616 26.7831 25.5137 27.5173C24.4705 28.2483 23.26 28.7313 22.013 28.9142C21.6222 28.9716 21.2315 29.0002 20.8423 29.0002ZM7.45584 1.85209C5.64368 2.05213 4.03526 3.00197 2.96716 4.5264C1.76608 6.24057 1.48601 8.34894 2.19875 10.311C4.99126 17.9984 11.0018 24.0089 18.6892 26.8014C20.6512 27.5142 22.7596 27.2342 24.4738 26.033C25.9982 24.9649 26.9481 23.3565 27.1481 21.5443L21.7481 20.3872L19.2098 22.9255C18.9397 23.1957 18.5293 23.2674 18.1837 23.105C12.7922 20.5721 8.4281 16.208 5.89522 10.8165C5.73283 10.4709 5.80454 10.0605 6.07465 9.7904L8.61297 7.25208L7.45584 1.85209Z" fill="#E64646"/>
</svg>
