<svg width="35" height="30" viewBox="0 0 35 30" fill="none" xmlns="http://www.w3.org/2000/svg">
<path d="M0.54459 13.3794L8.24765 17.1763C8.54559 17.3217 8.89734 17.3113 9.18215 17.1464L16.0387 13.2042L11.8885 16.8414C11.6772 17.027 11.5565 17.2918 11.5565 17.5709V26.4303C11.5565 27.3649 12.7627 27.7582 13.3283 27.0157L16.6582 22.6373L24.8928 27.2753C25.4703 27.6037 26.2105 27.274 26.3444 26.6211L31.4802 1.3086C31.6338 0.54793 30.8686 -0.0725503 30.1572 0.21043L0.625965 11.6011C-0.166785 11.9074 -0.217973 13.0043 0.54459 13.3794ZM29.1965 2.67158L24.6828 24.9167L16.88 20.5214C16.4547 20.2813 15.9074 20.3877 15.6055 20.7824L13.5252 23.5174V18.0084L24.7484 8.17413C25.637 7.39658 24.6158 6.01413 23.6013 6.60346L8.6519 15.1993L3.4124 12.6174L29.1965 2.67158Z" fill="#ED411B"/>
</svg>
